<?xml version="1.0"?>
<svg xmlns="http://www.w3.org/2000/svg" id="outline" viewBox="0 0 512 512" width="512" height="512"><path d="M496,376a48.07611,48.07611,0,0,0-32-45.2478V312a8.00018,8.00018,0,0,0-6.05957-7.76123,77.16279,77.16279,0,0,1-45.58105-32.12109L406.94769,264H424a8.00024,8.00024,0,0,0,7.42773-5.02881l16-40A8.00009,8.00009,0,0,0,440,208H388.28125L376,189.57812V184a24.02687,24.02687,0,0,0-24-24H336a7.99977,7.99977,0,0,0-8,8v8a24.02687,24.02687,0,0,0,24,24h11.71875l5.33331,8H368a7.96093,7.96093,0,0,0-4.5011,1.38727,24.82121,24.82121,0,0,0-9.3949-3.1861L312,200.93768V161.6001a41.38157,41.38157,0,0,0-8.84839-25.60321A24.99719,24.99719,0,0,0,328,111.0293V76a44,44,0,0,0-88-.00049L239.99951,88A23.94263,23.94263,0,0,0,248,105.86963v20.65771a41.52884,41.52884,0,0,0-16,19.07227L209.84619,198.769A127.35646,127.35646,0,0,0,200,248a39.79044,39.79044,0,0,0,8.02185,24H176a7.99977,7.99977,0,0,0-8,8h-6.10425l21.92652-102.32373A8.00012,8.00012,0,0,0,176,168h-8a32.036,32.036,0,0,0-32-32H56a32.036,32.036,0,0,0-32,32,8.00012,8.00012,0,0,0-7.82227,9.67627L38.10425,280H24a7.99977,7.99977,0,0,0-8,8v24a7.99977,7.99977,0,0,0,8,8H64v8a7.99877,7.99877,0,0,0,2.34326,5.65674l16,16,.01764-.01758c.11127.11133.20532.23462.32416.34033l20.8598,18.542A55.99477,55.99477,0,1,0,141.951,456H333.79883A71.91062,71.91062,0,0,0,385.021,434.60852,55.99188,55.99188,0,1,0,479.13831,384H488A7.99977,7.99977,0,0,0,496,376ZM352,184a8.00917,8.00917,0,0,1-8-8h8a8.00917,8.00917,0,0,1,8,8Zm23.70752,151.32959-13.2583,35.35535-9.21387-6.1427,16.33539-59.89637ZM296,336V304a31.79288,31.79288,0,0,0-4.305-16H312v79.01465L305.75366,392H273.059A79.7241,79.7241,0,0,0,296,336Zm30.24634,40h15.33178l15.10236,10.06824L354.45605,392H322.24634ZM376,224h20.18378l-9.6,24H376Zm42.5835,24H403.81622l9.6-24h14.76739ZM360,231.00391A9.00629,9.00629,0,0,1,351.00391,240H336V220.06244l16.11963,2.0152A9.0095,9.0095,0,0,1,360,231.00391ZM256,76a28.00135,28.00135,0,0,1,55.71533-4H280a7.99977,7.99977,0,0,0-8,8v8a8.00025,8.00025,0,0,1-16.00049.00049Zm8,36a24.02687,24.02687,0,0,0,24-24h24v23.0293a8.97072,8.97072,0,0,1-15.314,6.34326l-11.0293-11.0293-11.31348,11.31348,2.91944,2.91943A41.48723,41.48723,0,0,0,264,120.49231Zm-17.23047,39.75342A25.59993,25.59993,0,0,1,296,161.6001v12.51153l-8.84473-17.68927-14.31054,7.15528,24,48a7.9988,7.9988,0,0,0,6.16308,4.36035L320,218.06226V240H295.37988a23.88307,23.88307,0,0,1-18.74072-9.00732l-22.39209-27.99024-12.49414,9.99512L250.55487,224H218.59692a111.9971,111.9971,0,0,1,6.0188-19.07666ZM216,248q0-4.01953.28564-8H263.3548l.79022.98779A39.80475,39.80475,0,0,0,295.37988,256H360v22.92871L337.88965,360H328V280a7.99977,7.99977,0,0,0-8-8H240A24.02687,24.02687,0,0,1,216,248Zm48,40a16.01833,16.01833,0,0,1,16,16H184V288ZM152,168H127.989A7.97925,7.97925,0,0,0,120,160H104a23.88362,23.88362,0,0,0-1.37622-8H136A16.01833,16.01833,0,0,1,152,168Zm-26.77777,16h9.33417l-5.33326,32h-9.81909ZM64,208V176H80v32Zm16,16h8a7.99977,7.99977,0,0,0,8-8V176h14.41406L97.32324,248H80ZM56,152H80a8.00917,8.00917,0,0,1,8,8H56a7.99977,7.99977,0,0,0-8,8H40A16.01833,16.01833,0,0,1,56,152ZM33.896,184H48v32a7.99977,7.99977,0,0,0,8,8h8v32a7.99977,7.99977,0,0,0,8,8h32a8.00056,8.00056,0,0,0,7.87109-6.56885L116.49493,232H136a8,8,0,0,0,7.89111-6.68506L150.77692,184H166.104l-20.57122,96H54.46722ZM32,296H168v8H32Zm48,24H91.05591l-5.2475,10.49487L80,324.68652Zm28.94434,0H280v16a64.0727,64.0727,0,0,1-64,64H163.0415l-65.144-57.90625ZM128,432H96a8,8,0,0,1,0-16h32ZM96,464a40,40,0,1,1,32.00159-64H96a24,24,0,0,0,0,48h31.985A40.16019,40.16019,0,0,1,96,464Zm104-24H144V416h56Zm133.79883,0H216V416a79.51386,79.51386,0,0,0,34.84583-8H360a7.99963,7.99963,0,0,0,7.49072-5.19092l24-64a8.00462,8.00462,0,0,0,.354-4.37793L377.7583,264h9.96l11.32862,16.99268A93.10312,93.10312,0,0,0,448,318.02832V328H424a7.99956,7.99956,0,0,0-7.353,4.84863l-31.376,73.21094A55.93715,55.93715,0,0,1,333.79883,440Zm84.995-49.89258L445.37256,416.686A8.97072,8.97072,0,0,1,432.686,429.37256L406.10736,402.794A40.30087,40.30087,0,0,1,418.79388,390.10742ZM480,424a40,40,0,1,1-79.74835-4.43481L421.37256,440.686A24.9704,24.9704,0,1,0,456.686,405.37256l-21.12092-21.12085A39.95678,39.95678,0,0,1,480,424Zm-61.01038-56,10.28577-24H448a32.05775,32.05775,0,0,1,30.98779,24Z"/></svg>
