<?xml version="1.0"?>
<svg xmlns="http://www.w3.org/2000/svg" viewBox="0 0 512 512" width="512" height="512"><g id="outline"><path d="M16.049,304.883,24,376.443V488a8,8,0,0,0,8,8H96a8,8,0,0,0,8-8V472a24.028,24.028,0,0,0-24-24H72V432.571l7.92-55.44A8.072,8.072,0,0,0,80,376V259.314l10.343,10.343A8,8,0,0,0,96,272h56a24.027,24.027,0,0,0,24-24h49.376A23.985,23.985,0,0,0,240,278.624V488a8,8,0,0,0,8,8H488a8,8,0,0,0,8-8V24a8,8,0,0,0-8-8H248a8,8,0,0,0-8,8V136H136a8,8,0,0,0-8,8v80H115.313l-13.656-13.657L82.344,191.03A23.871,23.871,0,0,0,72,184.928V169.869A23.941,23.941,0,0,0,80,152V128H96V112H80a32,32,0,0,0-64,0v32a31.86,31.86,0,0,0,8,21.132v25A23.943,23.943,0,0,0,16,208v96a8.038,8.038,0,0,0,.051.883ZM56,452.244a14.668,14.668,0,0,1-16,0V440H56Zm8-76.813L57.061,424H40V376a8.137,8.137,0,0,0-.049-.883L32.938,312H64ZM88,472v8H40V469.558A30.692,30.692,0,0,0,67.03,464H80A8.009,8.009,0,0,1,88,472ZM256,200H144V184H256Zm32,48a8,8,0,0,0,5.657-2.343L304,235.314,316.686,248l-16,16H248a8,8,0,0,1,0-16Zm64-128H336a16.019,16.019,0,0,1,16-16h8a24.027,24.027,0,0,1,24,24v40a8.009,8.009,0,0,1-8,8V144A24.027,24.027,0,0,0,352,120ZM332.97,464A30.684,30.684,0,0,0,360,469.558V480H312v-8a8.009,8.009,0,0,1,8-8ZM360,452.244a14.668,14.668,0,0,1-16,0V392h16ZM321.973,376l12.444-56h35.166l12.444,56ZM352,136a8.009,8.009,0,0,1,8,8v21.844A15.963,15.963,0,0,1,352,168h-8a8.009,8.009,0,0,1-8-8V136Zm0,48a32,32,0,0,0,8-1.022V192H344v-8Zm-23.029,26.343A7.944,7.944,0,0,1,334.627,208H360a8.009,8.009,0,0,1,8,8v88H336V251.314l13.657-13.657-11.314-11.314L328,236.686,315.313,224ZM256,280h48a8,8,0,0,0,5.657-2.343L320,267.314v43.808l-15.81,71.143A8,8,0,0,0,312,392h16v56h-8a24.028,24.028,0,0,0-24,24v8H256Zm0-248H480V480H376V392h16a8,8,0,0,0,7.81-9.735L384,311.122V216a23.943,23.943,0,0,0-8-17.869V192a24.027,24.027,0,0,0,24-24V128a40.045,40.045,0,0,0-40-40h-8a32.036,32.036,0,0,0-32,32v40a23.941,23.941,0,0,0,8,17.869v15.059a23.871,23.871,0,0,0-10.344,6.1L284.687,232H272V144a8,8,0,0,0-8-8h-8Zm0,120v16H144V152ZM144,216H256v16H169.869A23.943,23.943,0,0,0,152,224h-8Zm-32,24h40a8,8,0,0,1,0,16H99.313l-16-16L96,227.314l10.343,10.343A8,8,0,0,0,112,240ZM84.687,216,72,228.686,61.657,218.343,50.343,229.657,64,243.314V296H32V208a8.009,8.009,0,0,1,8-8H65.373a7.944,7.944,0,0,1,5.656,2.343ZM64,152a8.009,8.009,0,0,1-8,8H48a16.019,16.019,0,0,1-16-16V128H64ZM48,96a16.019,16.019,0,0,1,16,16H32A16.019,16.019,0,0,1,48,96Zm-8,78.987A31.94,31.94,0,0,0,48,176h8v8H40Z"/><path d="M400,248v16h16v40a8,8,0,0,0,8,8h32a8,8,0,0,0,8-8V224a8,8,0,0,0-8-8H424a8,8,0,0,0-8,8v24Zm32-16h16v64H432V264h8V248h-8Z"/></g></svg>
