<svg id="Layer_1" enable-background="new 0 0 511.393 511.393" height="512" viewBox="0 0 511.393 511.393" width="512" xmlns="http://www.w3.org/2000/svg"><path d="m490.36 128.057h-107.781c1.747-2.209 2.971-3.653 5.429-6.668 24.167-29.644 21.981-72.416-5.09-99.501-30.808-30.792-77.904-27.67-105.896.639-27.839-28.153-74.885-31.637-105.903-.633-27.065 27.078-29.25 69.851-5.084 99.493 2.786 3.404 3.907 4.753 5.412 6.669h-80.898l-5.943-66.208c-.972-10.826-10.045-19.121-20.916-19.121h-42.666c-11.598 0-21 9.402-21 21s9.402 21 21 21h23.467c1.353 15.073 24.149 269.094 24.208 269.618 2.551 22.11 13.851 41.267 30.19 54.21-32.546 41.563-2.811 102.839 50.135 102.839 43.966 0 74.925-43.853 59.865-85.334h114.936c-15.05 41.455 15.877 85.334 59.865 85.334 35.106 0 63.667-28.561 63.667-63.667s-28.561-63.667-63.667-63.667h-234.525c-15.952 0-29.853-9.624-35.854-23.646l335.61-19.724c9.163-.538 16.915-6.966 19.141-15.87l42.67-170.67c3.317-13.262-6.735-26.093-20.372-26.093zm-289.542-76.464c20.536-20.527 55.204-5.628 55.204 22.857 0 11.598 9.402 21 21 21s21-9.402 21-21c0-13.457 7.508-24.603 20.084-29.813 31.046-12.86 58.391 24.402 37.349 50.213-10.118 12.414-.644-.05-78.744 104.44-75.317-101.617-68.488-92.67-78.123-104.44-10.501-12.882-9.54-31.482 2.23-43.257zm-51.794 417.8c-11.947 0-21.667-9.72-21.667-21.667s9.72-21.667 21.667-21.667 21.667 9.72 21.667 21.667-9.721 21.667-21.667 21.667zm234.666 0c-11.947 0-21.667-9.72-21.667-21.667s9.72-21.667 21.667-21.667 21.667 9.72 21.667 21.667-9.72 21.667-21.667 21.667zm47.369-169.725-323.399 19.005-13.34-148.617h108.46c16.893 22.803 32.256 43.547 56.992 76.908 8.381 11.303 25.287 11.302 33.688.067 24.635-32.949 39.385-52.696 57.528-76.976h112.477z"/></svg>