<svg height="512pt" viewBox="-24 0 512 512.00016" width="512pt" xmlns="http://www.w3.org/2000/svg"><path d="m437.429688 275.050781c-13.601563-21.222656-24.675782-43.988281-31.800782-68.164062-15.15625-51.4375-52.53125-93.347657-101.015625-114.636719-3.550781-1.558594-4.074219-6.347656-.941406-8.636719 18.15625-13.289062 27.929687-29.617187 22.414063-39.335937-6.507813-11.457032-31.796876-9.378906-56.488282 4.640625-4.972656 2.824219-9.535156 5.917969-13.609375 9.152343 9.414063-22.460937 8.371094-44.035156-2.84375-49.363281-11.902343-5.652343-30.742187 9.128907-42.085937 33.007813-5.625 11.851562-8.34375 23.710937-8.203125 33.347656.035156 2.441406-1.664063 4.558594-4.0625 5-67.042969 12.375-121.140625 61.660156-140.4375 126-7.183594 23.957031-17.488281 46.867188-31.242188 67.757812-12.433593 18.878907-19.628906 41.496094-19.613281 65.800782.101562 219.84375 448.644531 219.84375 448.746094 0 .007812-23.777344-6.875-45.941406-18.816406-64.570313zm0 0" fill="#fee45a"/><path d="m437.429688 275.050781c-13.601563-21.222656-24.675782-43.988281-31.800782-68.164062-15.15625-51.4375-52.53125-93.347657-101.015625-114.636719-3.550781-1.558594-4.074219-6.347656-.941406-8.636719 18.15625-13.289062 27.929687-29.617187 22.414063-39.335937-4.472657-7.878906-17.824219-9.355469-33.757813-4.957032 2.347656 1.203126 4.183594 2.847657 5.382813 4.957032 5.515624 9.71875-4.253907 26.046875-22.414063 39.335937-3.132813 2.289063-2.609375 7.078125.941406 8.636719 48.484375 21.289062 85.859375 63.199219 101.019531 114.636719 7.125 24.175781 18.195313 46.941406 31.796876 68.164062 11.941406 18.628907 18.828124 40.792969 18.816406 64.570313-.050782 105.285156-102.949219 160.136718-210.1875 164.578125 116.683594 4.832031 238.507812-50.019531 238.558594-164.578125.011718-23.777344-6.871094-45.941406-18.8125-64.570313zm0 0" fill="#fac600"/><path d="m231.871094 371.894531c-25.3125 0-48.9375-3.921875-68.941406-10.710937-6.507813-2.207032-12.5 4.980468-11.003907 13.105468 8.734375 47.460938 41.203125 82.714844 79.945313 82.714844 38.738281 0 71.210937-35.253906 79.941406-82.714844 1.496094-8.125-4.496094-15.3125-11-13.105468-20.007812 6.789062-43.632812 10.710937-68.941406 10.710937zm0 0" fill="#8c2f3f"/><path d="m367.054688 333.015625h-88.621094c-12.617188 0-22.84375-10.226563-22.84375-22.84375v-76.753906c0-12.617188 10.226562-22.84375 22.84375-22.84375h88.621094c12.613281 0 22.839843 10.226562 22.839843 22.84375v76.753906c0 12.617187-10.226562 22.84375-22.839843 22.84375zm0 0" fill="#99e6fc"/><path d="m185.308594 333.015625h-88.621094c-12.617188 0-22.84375-10.226563-22.84375-22.84375v-76.753906c0-12.617188 10.226562-22.84375 22.84375-22.84375h88.621094c12.613281 0 22.839844 10.226562 22.839844 22.84375v76.753906c0 12.617187-10.226563 22.84375-22.839844 22.84375zm0 0" fill="#99e6fc"/><path d="m340.71875 271.796875c0 9.925781-8.046875 17.972656-17.976562 17.972656-9.925782 0-17.976563-8.046875-17.976563-17.972656 0-9.929687 8.050781-17.976563 17.976563-17.976563 9.929687 0 17.976562 8.046876 17.976562 17.976563zm0 0" fill="#353535"/><path d="m158.972656 271.796875c0 9.925781-8.046875 17.972656-17.976562 17.972656-9.925782 0-17.976563-8.046875-17.976563-17.972656 0-9.929687 8.050781-17.976563 17.976563-17.976563 9.929687 0 17.976562 8.046876 17.976562 17.976563zm0 0" fill="#353535"/><path d="m231.871094 371.894531c-9.121094 0-18.015625-.515625-26.609375-1.484375l1.476562 21.40625c.402344 5.824219 5.832031 9.964844 11.558594 8.8125 5.027344-1.007812 10.558594-1.957031 13.574219-1.957031 3.011718 0 8.542968.949219 13.574218 1.957031 5.726563 1.152344 11.15625-2.988281 11.558594-8.8125l1.472656-21.40625c-8.589843.96875-17.488281 1.484375-26.605468 1.484375zm0 0" fill="#e8eaea"/><path d="m271.832031 443.382812c-9.976562-10.6875-24.183593-17.378906-39.960937-17.378906s-29.984375 6.691406-39.964844 17.378906c11.832031 8.675782 25.457031 13.621094 39.964844 13.621094 14.503906 0 28.128906-4.945312 39.960937-13.621094zm0 0" fill="#fd4755"/><path d="m443.742188 271.003906c-14.003907-21.847656-24.40625-44.132812-30.921876-66.238281-15.347656-52.085937-52.175781-94.753906-101.371093-117.652344 19.757812-15.679687 28.242187-34.054687 21.15625-46.539062-4.671875-8.226563-14.8125-12.132813-28.558594-11.003907-10.824219.890626-23.195313 4.835938-35.15625 11.179688 3.097656-18.445312-1.3125-33.488281-12.53125-38.816406-16.148437-7.664063-38.535156 8.054687-52.074219 36.566406-5.554687 11.699219-8.691406 23.886719-8.921875 34.582031-22.976562 4.503907-44.664062 13.164063-64.492187 25.761719-3.496094 2.21875-4.53125 6.851562-2.308594 10.351562 2.21875 3.492188 6.855469 4.53125 10.351562 2.308594 18.792969-11.9375 39.394532-20.03125 61.234376-24.0625 6-1.105468 10.292968-6.355468 10.203124-12.484375-.128906-8.929687 2.527344-19.589843 7.484376-30.019531 10.570312-22.261719 26.066406-32.308594 32.089843-29.453125 2.722657 1.292969 4.550781 5.738281 4.886719 11.890625.441406 8.042969-1.597656 17.914062-5.738281 27.796875-1.324219 3.15625-.34375 6.808594 2.386719 8.878906 2.730468 2.066407 6.511718 2.023438 9.191406-.105469 3.882812-3.082031 8.140625-5.945312 12.648437-8.503906 10.855469-6.164062 22.507813-10.144531 31.972657-10.921875 7.152343-.585937 12.761718.773438 14.289062 3.460938 2.472656 4.359375-3.210938 17.0625-20.324219 29.582031-3.660156 2.679688-5.550781 6.964844-5.058593 11.460938.492187 4.496093 3.265624 8.273437 7.417968 10.097656 47.046875 20.65625 82.34375 60.710937 96.835938 109.886718 6.914062 23.46875 17.910156 47.046876 32.679687 70.089844 11.542969 18.007813 17.640625 38.933594 17.628907 60.519532-.027344 61-36.3125 97.503906-66.746094 117.386718-39.484375 25.792969-92.800782 39.996094-150.125 39.996094-57.324219 0-110.640625-14.203125-150.125-40-30.433594-19.878906-66.71875-56.382812-66.746094-117.382812-.011719-22.074219 6.34375-43.402344 18.375-61.675782 13.714844-20.820312 24.535156-44.28125 32.164062-69.722656 9.203126-30.691406 26.785157-58.25 50.847657-79.695312 3.089843-2.757813 3.363281-7.496094.605469-10.589844-2.753907-3.089844-7.496094-3.363282-10.585938-.609375-26.132812 23.296875-45.230469 53.234375-55.234375 86.582031-7.210937 24.050781-17.410156 46.183594-30.320313 65.785156-13.652343 20.734375-20.8632808 44.914063-20.851562 69.933594.0234375 53.589844 25.457031 98.519531 73.542969 129.933594 41.894531 27.367187 98.125 42.441406 158.328125 42.441406s116.433594-15.074219 158.328125-42.441406c48.085937-31.414063 73.515625-76.34375 73.542969-129.933594.011718-24.464844-6.90625-48.191406-20-68.621094zm0 0"/><path d="m298.398438 354.078125c-19.882813 6.75-42.886719 10.316406-66.527344 10.316406s-46.648438-3.566406-66.53125-10.316406c-5.066406-1.71875-10.566406-.601563-14.71875 2.988281-5.050782 4.363282-7.375 11.484375-6.070313 18.578125 9.625 52.316407 45.535157 88.855469 87.320313 88.855469s77.691406-36.539062 87.316406-88.855469c1.304688-7.097656-1.019531-14.214843-6.070312-18.578125-4.148438-3.589844-9.652344-4.707031-14.71875-2.988281zm-48.011719 24.621094c-1.160157 11.382812-.199219 13.015625-1.714844 14.171875-.292969.222656-.910156.570312-1.75.402344-7.058594-1.417969-11.984375-2.105469-15.050781-2.105469-3.070313 0-7.992188.6875-15.050782 2.105469-.84375.167968-1.460937-.179688-1.753906-.402344-.289062-.222656-.785156-.722656-.84375-1.574219l-.871094-12.597656c6.113282.457031 12.296876.695312 18.519532.695312s12.40625-.238281 18.515625-.695312zm-46.085938 63.695312c7.960938-5.777343 17.480469-8.894531 27.570313-8.894531 10.085937 0 19.605468 3.117188 27.566406 8.894531-8.683594 4.679688-17.976562 7.105469-27.566406 7.105469s-18.886719-2.425781-27.570313-7.105469zm100.136719-69.464843c-4.007812 21.773437-13.515625 41.425781-26.773438 55.339843-1.757812 1.84375-3.5625 3.5625-5.40625 5.175781-11.199218-9.558593-25.570312-14.945312-40.386718-14.945312-14.820313 0-29.191406 5.386719-40.386719 14.945312-1.84375-1.613281-3.652344-3.332031-5.410156-5.175781-13.257813-13.914062-22.765625-33.566406-26.769531-55.339843-.476563-2.585938.71875-4.300782 1.269531-4.628907 11.714843 3.972657 24.40625 6.910157 37.628906 8.765625l1.054687 15.261719c.339844 4.929687 2.785157 9.472656 6.710938 12.46875s8.957031 4.152344 13.804688 3.183594c8.148437-1.636719 11.175781-1.8125 12.097656-1.8125s3.949218.175781 12.097656 1.8125c1.125.226562 2.257812.335937 3.382812.335937 3.738282 0 7.40625-1.21875 10.421876-3.519531 3.925781-2.996094 6.371093-7.539063 6.710937-12.46875l1.050781-15.261719c13.21875-1.855468 25.910156-4.792968 37.636719-8.761718.546875.324218 1.738281 2.039062 1.265625 4.625zm0 0"/><path d="m322.742188 297.269531c14.046874 0 25.476562-11.425781 25.476562-25.472656s-11.429688-25.476563-25.476562-25.476563c-14.046876 0-25.476563 11.429688-25.476563 25.476563s11.429687 25.472656 25.476563 25.472656zm0-35.949219c5.777343 0 10.476562 4.699219 10.476562 10.476563 0 5.773437-4.699219 10.472656-10.476562 10.472656-5.777344 0-10.476563-4.699219-10.476563-10.472656 0-5.777344 4.699219-10.476563 10.476563-10.476563zm0 0"/><path d="m141 246.320312c-14.050781 0-25.476562 11.429688-25.476562 25.476563s11.425781 25.472656 25.476562 25.472656c14.046875 0 25.472656-11.425781 25.472656-25.472656s-11.425781-25.476563-25.472656-25.476563zm0 35.953126c-5.777344 0-10.476562-4.703126-10.476562-10.476563 0-5.777344 4.699218-10.476563 10.476562-10.476563 5.773438 0 10.472656 4.699219 10.472656 10.476563 0 5.773437-4.699218 10.476563-10.472656 10.476563zm0 0"/><path d="m300.917969 184.5625c5.929687-7.242188 13.679687-11.226562 21.824219-11.226562 8.144531 0 15.894531 3.984374 21.824218 11.226562 1.484375 1.8125 3.636719 2.75 5.808594 2.75 1.671875 0 3.351562-.554688 4.746094-1.695312 3.207031-2.625 3.675781-7.351563 1.054687-10.554688-8.832031-10.789062-20.703125-16.726562-33.429687-16.726562-12.726563 0-24.601563 5.9375-33.429688 16.726562-2.625 3.203125-2.152344 7.929688 1.050782 10.554688 3.203124 2.621093 7.929687 2.152343 10.550781-1.054688zm0 0"/><path d="m141 158.335938c-12.730469 0-24.601562 5.9375-33.433594 16.726562-2.621094 3.203125-2.148437 7.929688 1.054688 10.554688 3.203125 2.621093 7.929687 2.152343 10.554687-1.054688 5.925781-7.242188 13.679688-11.226562 21.824219-11.226562s15.894531 3.984374 21.824219 11.226562c1.480469 1.8125 3.636719 2.75 5.808593 2.75 1.667969 0 3.351563-.554688 4.746094-1.695312 3.203125-2.625 3.675782-7.351563 1.050782-10.554688-8.832032-10.785156-20.703126-16.726562-33.429688-16.726562zm0 0"/><path d="m185.308594 203.074219h-88.621094c-16.730469 0-30.339844 13.613281-30.339844 30.34375v76.753906c0 16.730469 13.609375 30.339844 30.339844 30.339844h88.621094c16.730468 0 30.339844-13.609375 30.339844-30.339844v-31.988281h32.441406v31.988281c0 16.730469 13.609375 30.339844 30.34375 30.339844h88.617187c16.730469 0 30.34375-13.609375 30.34375-30.339844v-76.753906c0-16.730469-13.613281-30.34375-30.34375-30.34375h-88.617187c-16.734375 0-30.34375 13.613281-30.34375 30.34375v29.765625h-32.441406v-29.765625c0-16.730469-13.609376-30.34375-30.339844-30.34375zm77.78125 30.34375c0-8.460938 6.882812-15.34375 15.34375-15.34375h88.617187c8.460938 0 15.34375 6.882812 15.34375 15.34375v76.753906c0 8.460937-6.882812 15.34375-15.34375 15.34375h-88.617187c-8.460938 0-15.34375-6.882813-15.34375-15.34375zm-62.441406 76.753906c0 8.460937-6.878907 15.34375-15.339844 15.34375h-88.621094c-8.460938 0-15.339844-6.882813-15.339844-15.34375v-76.753906c0-8.457031 6.878906-15.34375 15.339844-15.34375h88.621094c8.460937 0 15.339844 6.886719 15.339844 15.34375zm0 0"/></svg>