<svg id="Layer_1" enable-background="new 0 0 468 468" height="512" viewBox="0 0 468 468" width="512" xmlns="http://www.w3.org/2000/svg"><g fill="#4f4f4f"><path d="m132.883 245h-.476c-43.222 0-78.385-35.278-78.385-78.5s35.164-78.5 78.385-78.5h.476c43.222 0 78.386 35.278 78.386 78.5s-35.164 78.5-78.386 78.5zm-.476-127c-26.68 0-48.385 21.82-48.385 48.5s21.706 48.5 48.385 48.5h.476c26.68 0 48.386-21.82 48.386-48.5s-21.706-48.5-48.386-48.5z"/><g><path d="m320.787 210h-.555c-49.047 0-88.95-39.953-88.95-89s39.903-89 88.95-89h.555c49.047 0 88.95 39.953 88.95 89-.001 49.047-39.904 89-88.95 89zm-.556-148c-32.505 0-58.95 26.495-58.95 59s26.445 59 58.95 59h.555c32.505 0 58.95-26.495 58.95-59s-26.445-59-58.95-59z"/><path d="m124 406h29v30h-29z"/><path d="m98 436h-69c-15.991 0-29-13.009-29-29v-117.869c0-12.543 8.003-23.61 19.914-27.54l46.308-15.277c5.765-1.901 12.11-.141 16.07 4.462l50.354 58.526 12.601-14.646 22.741 19.565-23.972 27.863c-5.874 6.827-16.866 6.83-22.741 0l-55.181-64.137-36.094 11.907v116.146h68z"/></g><path d="m446.046 240.375-64.635-16.188c-6.958-1.742-14.183 1.689-17.228 8.188l-41.544 88.69-41.73-88.712c-3.06-6.505-10.303-9.927-17.274-8.151l-63.63 16.158c-12.862 3.274-22.005 14.83-22.005 28.102v152.538c0 8.284 7.036 15 15.32 15h245.68c15.991 0 29-13.009 29-29v-138.494c0-13.325-9.028-24.893-21.954-28.131z"/></g></svg>