<svg id="Layer_1" enable-background="new 0 0 512 512" height="512" viewBox="0 0 512 512" width="512" xmlns="http://www.w3.org/2000/svg"><path d="m392 512h-272c-66.168 0-120-53.832-120-120v-272c0-66.168 53.832-120 120-120h272c66.168 0 120 53.832 120 120v272c0 66.168-53.832 120-120 120zm-272-472c-44.112 0-80 35.888-80 80v272c0 44.112 35.888 80 80 80h272c44.112 0 80-35.888 80-80v-272c0-44.112-35.888-80-80-80zm312 89c0-11.046-8.954-20-20-20h-312c-11.046 0-20 8.954-20 20s8.954 20 20 20h312c11.046 0 20-8.954 20-20zm-279.258 194c-33.084 0-60-26.916-60-60s26.916-60 60-60 60 26.916 60 60-26.916 60-60 60zm0-80c-11.028 0-20 8.972-20 20s8.972 20 20 20 20-8.972 20-20-8.972-20-20-20zm279.258-1c0-11.046-8.954-20-20-20h-136c-11.046 0-20 8.954-20 20s8.954 20 20 20h136c11.046 0 20-8.954 20-20zm0 70c0-11.046-8.954-20-20-20h-136c-11.046 0-20 8.954-20 20s8.954 20 20 20h136c11.046 0 20-8.954 20-20zm-50 70c0-11.046-8.954-20-20-20h-86c-11.046 0-20 8.954-20 20s8.954 20 20 20h86c11.046 0 20-8.954 20-20zm-268.502 15.758c8.995-8.227 20.688-12.758 32.925-12.758h12.638c12.237 0 23.93 4.531 32.925 12.758 8.149 7.454 20.801 6.89 28.256-1.26 7.455-8.151 6.891-20.802-1.26-28.256-16.387-14.988-37.667-23.242-59.921-23.242h-12.638c-22.254 0-43.535 8.254-59.921 23.242-8.151 7.455-8.715 20.105-1.26 28.256 3.945 4.314 9.345 6.502 14.763 6.502 4.821 0 9.656-1.732 13.493-5.242z"/></svg>